<svg data-v-423bf9ae="" xmlns="http://www.w3.org/2000/svg" viewBox="0 0 45.342202262347456 60" class="font"><!----><!----><!----><g data-v-423bf9ae="" id="e886dc63-e01d-4557-8cba-50ef982ebf21" fill="white" transform="matrix(5.703421592712402,0,0,5.703421592712402,-8.612164497375488,-49.448665618896484)"><path d="M6.30 13.22Q7.03 15.11 7.87 16.65Q8.71 18.19 9.32 18.72L9.32 18.72Q9.16 18.90 8.80 19.04Q8.44 19.18 8.15 19.18L8.15 19.18Q7.71 19.18 7.42 18.99Q7.13 18.80 6.83 18.31Q6.52 17.81 6.08 16.79L6.08 16.79L4.90 14.15L3.56 15.04Q3.25 16.98 3.25 17.60L3.25 17.60Q3.25 18.41 3.58 18.83L3.58 18.83Q3.02 19.19 2.51 19.19L2.51 19.19Q1.99 19.19 1.75 18.93Q1.51 18.66 1.51 18.06L1.51 18.06Q1.51 17.25 1.74 15.58Q1.96 13.90 2.59 10.11L2.59 10.11L2.16 9.25Q3.14 8.67 3.82 8.67L3.82 8.67Q4.44 8.67 4.44 9.41L4.44 9.41Q4.44 9.66 3.98 12.43L3.98 12.43L3.72 13.94L4.21 13.58Q5.53 12.60 6.27 11.90Q7.01 11.20 7.34 10.63Q7.66 10.05 7.66 9.46L7.66 9.46Q7.66 9.25 7.55 8.99L7.55 8.99Q7.76 8.85 8.02 8.76Q8.27 8.68 8.51 8.68L8.51 8.68Q8.93 8.68 9.20 8.95Q9.46 9.21 9.46 9.63L9.46 9.63Q9.46 10.42 8.73 11.24Q7.99 12.07 6.30 13.22L6.30 13.22Z"></path></g><!----><!----></svg>