<?xml version="1.0" standalone="no"?>
<!DOCTYPE svg PUBLIC "-//W3C//DTD SVG 20010904//EN"
 "http://www.w3.org/TR/2001/REC-SVG-20010904/DTD/svg10.dtd">
<svg version="1.0" xmlns="http://www.w3.org/2000/svg"
 width="2000.000000pt" height="1500.000000pt" viewBox="0 0 2000.000000 1500.000000"
 preserveAspectRatio="xMidYMid meet">

<g transform="translate(0.000000,1500.000000) scale(0.100000,-0.100000)"
fill="#000000" stroke="none">
<path d="M0 7500 l0 -7500 10000 0 10000 0 0 7500 0 7500 -10000 0 -10000 0 0
-7500z m4314 2182 c49 -44 46 74 46 -2180 l0 -2109 -23 -34 c-46 -69 -108 -73
-155 -11 l-27 35 0 2121 0 2121 24 33 c38 54 91 63 135 24z m11566 -2166 c3
-3 60 -19 125 -37 66 -18 121 -33 123 -34 1 -1 -11 -26 -27 -56 l-30 -53 -416
-1 -417 0 -24 47 c-13 26 -24 51 -24 56 0 5 52 23 116 40 64 17 119 34 123 37
9 10 7 1722 -3 1846 l-8 106 -121 18 c-67 9 -129 21 -138 26 -15 8 -44 107
-34 117 3 3 102 12 220 19 117 8 283 22 367 31 l153 17 5 -1087 c3 -597 7
-1089 10 -1092z m-3378 1957 c-1 -120 1 -393 5 -606 l8 -389 30 42 c40 54 147
135 215 162 83 33 246 37 338 9 127 -38 237 -144 308 -296 58 -125 69 -182 68
-360 -1 -145 -3 -168 -28 -250 -41 -134 -89 -218 -176 -306 -120 -122 -224
-164 -405 -162 -160 1 -250 38 -381 156 l-50 46 -88 -95 -87 -94 -106 0 -106
0 7 48 c3 26 11 342 17 702 10 660 6 926 -22 1242 -11 125 -14 137 -33 142
-12 2 -69 12 -128 22 l-107 17 -11 56 c-6 31 -13 61 -15 67 -2 8 38 14 128 18
160 8 528 36 542 41 6 2 26 4 45 4 l35 1 -3 -217z m-8963 -73 c29 -379 41
-600 41 -777 0 -139 -2 -159 -20 -189 -40 -64 -156 -119 -335 -159 -38 -9 -78
-18 -87 -21 -17 -5 -18 -83 -18 -1450 0 -1431 0 -1444 -20 -1464 -25 -25 -71
-26 -101 -1 l-24 19 -3 1446 -2 1445 -38 10 c-187 48 -239 64 -290 90 -71 36
-119 87 -128 138 -13 71 48 1174 64 1158 3 -2 20 -184 38 -402 50 -605 54
-640 75 -667 22 -28 87 -46 168 -46 90 0 109 12 116 74 4 42 33 484 62 944 3
56 8 101 10 98 2 -2 20 -246 39 -542 28 -428 38 -542 50 -554 22 -22 198 -20
241 3 17 9 34 21 38 26 6 11 54 517 81 869 10 122 19 221 20 219 2 -1 12 -122
23 -267z m1776 17 c165 -1 372 0 459 2 l160 4 11 -34 c7 -19 15 -46 18 -61 8
-29 22 -22 -199 -87 l-71 -21 -8 -540 c-4 -297 -4 -681 0 -853 l8 -314 139
-32 c117 -27 138 -35 134 -49 -3 -9 -10 -35 -16 -57 l-12 -40 -484 0 -484 -1
-19 58 -19 57 138 32 138 33 8 145 c10 185 10 1126 0 1373 l-8 187 -87 26
c-47 14 -109 34 -137 43 l-52 17 19 63 c18 55 22 62 42 57 12 -3 157 -6 322
-8z m1749 -53 c12 -38 15 -58 8 -63 -6 -4 -68 -20 -138 -36 l-126 -29 -178
-190 c-189 -204 -354 -386 -435 -480 l-49 -58 24 -42 c93 -161 365 -566 553
-821 l96 -129 157 -33 c87 -18 159 -35 160 -36 2 -2 -6 -27 -17 -57 l-20 -55
-373 0 -373 -1 -58 101 c-119 205 -312 516 -441 713 -74 112 -134 205 -134
207 0 2 28 29 63 61 136 126 337 335 420 439 87 108 272 373 265 380 -1 2 -41
13 -88 25 -178 45 -162 37 -155 73 4 18 13 46 20 62 l12 30 394 -2 394 -2 19
-57z m2466 -796 l1 -153 42 50 c91 109 179 173 291 214 61 22 88 26 186 26
108 0 119 -2 180 -31 103 -49 178 -135 225 -258 l18 -46 47 69 c94 133 243
234 388 262 83 16 202 7 277 -22 79 -30 170 -118 213 -209 56 -118 62 -178 62
-589 l0 -370 55 -15 c30 -9 81 -23 113 -32 31 -9 58 -17 60 -19 1 -1 -7 -26
-18 -56 l-21 -54 -403 0 -403 -1 -16 47 c-10 26 -17 51 -17 57 0 5 45 22 101
38 55 15 107 33 115 38 12 9 15 64 17 316 2 266 0 313 -16 370 -32 118 -92
177 -205 201 -30 6 -64 8 -77 5 -43 -11 -140 -118 -179 -197 -59 -123 -67
-166 -73 -445 l-6 -250 117 -34 c70 -20 116 -38 116 -46 0 -7 -8 -32 -19 -56
l-18 -43 -403 0 -402 0 -20 53 c-11 29 -18 55 -16 57 1 1 52 17 112 33 60 17
111 34 115 37 12 13 14 562 1 632 -29 167 -99 242 -242 259 l-53 6 -66 -60
c-72 -66 -113 -134 -150 -247 -22 -67 -23 -83 -21 -330 2 -142 4 -261 6 -262
2 -2 52 -18 112 -35 60 -16 110 -31 112 -33 1 -1 -7 -26 -18 -56 l-21 -54
-403 0 -403 -1 -22 54 c-12 30 -21 56 -19 57 2 2 52 17 112 34 60 17 113 34
118 39 13 13 14 759 1 871 -6 52 -16 97 -23 101 -6 4 -53 13 -103 20 -51 7
-99 17 -108 21 -9 5 -21 28 -28 52 -6 25 -13 51 -17 60 -7 19 12 22 281 38
110 6 241 17 290 24 50 7 98 13 108 14 15 1 17 -13 17 -151z m7475 137 c155
-28 310 -129 381 -251 44 -74 73 -167 85 -270 6 -52 9 -97 6 -100 -14 -14
-291 -34 -555 -40 l-293 -7 6 -46 c27 -199 105 -325 243 -393 63 -31 72 -33
172 -32 89 1 117 5 180 28 41 16 98 41 126 57 28 16 54 29 58 29 3 0 22 -31
41 -70 l35 -70 -57 -45 c-75 -60 -217 -130 -318 -157 -65 -17 -108 -22 -225
-22 -131 0 -153 3 -225 27 -157 52 -282 149 -358 278 -132 223 -124 583 17
798 100 153 252 251 441 286 92 17 143 17 240 0z m-8723 -32 c130 -61 198
-153 219 -299 9 -58 9 -133 0 -303 -14 -291 -14 -409 2 -441 10 -20 21 -26 56
-28 24 -2 61 4 82 12 22 9 43 16 48 16 7 0 61 -119 61 -134 0 -8 -148 -96
-218 -130 -85 -40 -190 -62 -255 -52 -62 9 -132 58 -164 115 -15 25 -28 47
-29 49 -1 2 -32 -18 -69 -43 -145 -99 -232 -129 -370 -130 -89 0 -105 3 -150
27 -65 34 -129 104 -163 176 -24 50 -27 69 -27 162 0 98 2 109 29 158 66 119
192 175 560 247 98 20 183 38 187 41 13 8 11 172 -2 219 -6 22 -28 56 -50 79
l-40 39 -77 -6 c-100 -8 -227 -45 -365 -108 -62 -28 -117 -52 -122 -55 -9 -4
-85 112 -85 130 0 13 186 128 290 181 184 92 282 116 460 112 116 -2 130 -5
192 -34z m6339 1 c122 -58 185 -134 215 -259 14 -61 15 -100 8 -290 -13 -330
-12 -489 5 -508 18 -22 88 -22 141 -1 24 10 45 13 49 8 4 -5 18 -35 31 -68
l23 -58 -24 -19 c-45 -34 -195 -116 -250 -137 -77 -28 -158 -37 -219 -22 -57
14 -139 80 -160 130 -7 16 -14 30 -16 30 -2 0 -32 -20 -68 -45 -173 -121 -357
-164 -493 -114 -78 29 -162 113 -192 193 -53 142 -35 280 46 368 82 87 191
128 518 193 99 20 185 41 190 46 6 6 9 51 8 101 -2 107 -31 181 -84 212 -66
39 -254 -1 -472 -99 -66 -30 -121 -54 -122 -52 -1 1 -19 31 -40 66 l-38 64 23
19 c40 32 193 124 276 166 173 86 280 112 454 109 117 -2 129 -4 191 -33z
m-9181 -1978 c0 -48 -9 -66 -31 -66 -11 0 -37 -9 -59 -20 -30 -15 -41 -29 -49
-57 -10 -37 -31 -687 -31 -941 0 -117 1 -124 25 -147 21 -22 33 -25 95 -25
l72 0 -7 -42 c-4 -24 -9 -46 -12 -50 -2 -5 -119 -8 -259 -8 -238 0 -255 1
-250 18 2 9 7 31 11 48 5 28 11 32 47 38 57 9 94 31 106 63 7 19 12 205 14
549 3 606 11 564 -95 564 l-60 0 7 38 c3 20 6 43 6 51 0 12 22 13 128 9 70 -4
163 -3 207 1 144 14 135 16 135 -23z m493 22 c121 0 167 -3 167 -11 0 -7 -3
-28 -6 -48 -6 -33 -12 -38 -62 -59 -60 -25 -119 -81 -398 -376 l-142 -149 200
-260 c109 -143 211 -273 226 -288 45 -48 106 -85 163 -100 53 -13 54 -14 51
-48 -2 -19 -5 -35 -7 -37 -10 -10 -183 -28 -212 -22 -42 10 -115 66 -166 127
-79 96 -417 573 -417 588 0 9 93 113 207 231 224 233 243 255 243 296 0 32
-31 52 -97 63 -46 7 -44 1 -28 81 6 25 7 26 58 18 29 -4 127 -7 220 -6z m1723
-414 c7 -66 12 -136 13 -156 l1 -38 -49 0 -48 0 -7 46 c-3 25 -15 66 -26 90
-23 54 -54 69 -161 79 l-76 6 -6 -53 c-11 -96 -29 -717 -23 -763 10 -65 40
-85 127 -85 75 0 79 -5 63 -67 l-6 -23 -264 0 c-206 0 -263 3 -260 13 3 6 7
24 10 38 5 23 13 28 65 38 33 6 70 20 83 30 l23 19 3 427 3 426 -83 -7 c-141
-11 -169 -32 -192 -145 l-13 -64 -52 -3 c-47 -3 -52 -1 -48 15 3 10 11 77 17
148 6 72 13 135 14 140 2 6 157 10 442 9 l439 -2 11 -118z m1009 104 c-3 -13
-14 -79 -23 -148 l-18 -125 -50 -3 -49 -3 0 65 c0 55 -4 69 -23 88 -21 22 -30
23 -179 23 l-157 0 -7 -30 c-4 -16 -9 -96 -13 -176 l-5 -146 72 -7 c40 -3 128
-2 196 4 68 6 125 9 128 7 2 -3 -2 -29 -10 -58 l-13 -54 -181 -5 c-100 -3
-185 -9 -189 -13 -5 -5 -10 -84 -12 -176 -6 -225 -15 -215 187 -209 197 5 229
23 256 141 11 52 12 52 56 58 24 4 47 4 50 0 6 -5 -19 -181 -39 -269 l-7 -34
-403 -1 c-399 -2 -403 -2 -398 18 3 11 6 30 6 41 0 17 8 23 38 27 52 9 79 31
92 75 6 22 10 185 10 412 0 433 3 420 -80 420 l-49 0 5 33 c3 17 7 38 9 44 3
10 84 13 341 13 186 0 339 2 342 5 3 3 32 5 64 5 56 0 58 -1 53 -22z m859
-210 c38 -128 102 -336 143 -461 84 -258 98 -281 178 -302 l50 -12 -4 -39 c-1
-21 -4 -40 -4 -40 -1 -1 -108 -4 -237 -5 -219 -4 -235 -3 -234 14 3 67 0 64
61 71 65 8 93 27 93 65 0 14 -15 71 -33 126 l-32 100 -90 3 c-50 2 -131 0
-182 -3 l-91 -7 -37 -95 c-46 -122 -45 -163 5 -180 19 -7 61 -12 93 -12 l57
-1 0 -32 c0 -18 -4 -37 -8 -43 -4 -6 -88 -9 -226 -7 l-218 3 6 42 c4 22 8 42
9 42 40 13 82 42 97 67 11 18 99 232 195 474 l176 441 52 10 c28 6 66 11 83
12 l31 1 67 -232z m1773 157 c-3 -6 -23 -15 -46 -19 -22 -3 -52 -17 -67 -30
l-28 -23 13 -214 c27 -463 46 -607 84 -631 7 -4 29 -8 51 -8 l39 0 -7 -42 c-4
-23 -8 -43 -9 -44 -1 -1 -84 -4 -185 -6 l-182 -3 0 41 c0 39 2 42 34 48 55 11
71 37 69 115 -4 107 -43 573 -51 611 -7 32 -16 14 -109 -230 -56 -146 -127
-335 -159 -420 -31 -85 -62 -161 -67 -167 -5 -7 -21 -13 -36 -13 -25 0 -30 9
-100 198 -88 236 -229 607 -244 642 -9 23 -11 21 -18 -28 -4 -29 -17 -191 -30
-358 -17 -222 -21 -309 -13 -322 8 -12 27 -18 63 -20 50 -3 51 -4 51 -35 0
-18 -4 -37 -8 -43 -5 -8 -63 -13 -175 -15 l-169 -4 6 29 c3 16 6 34 6 41 0 8
13 16 29 20 33 7 55 28 70 67 11 30 79 626 83 731 4 81 -8 96 -89 112 -53 11
-58 14 -55 36 5 50 2 49 181 49 l169 0 86 -255 c101 -300 185 -525 196 -525 8
0 130 323 240 632 l53 148 161 2 161 3 3 -28 c2 -16 1 -35 -1 -42z m897 60
c39 -8 74 -19 79 -24 6 -6 3 -52 -7 -123 -10 -62 -19 -128 -22 -145 -5 -32 -7
-33 -49 -33 l-45 0 0 60 c0 124 -37 161 -165 168 -129 7 -213 -31 -236 -107
-28 -92 22 -143 256 -263 94 -48 189 -103 212 -122 55 -48 83 -108 83 -177 -2
-138 -91 -242 -254 -294 -132 -43 -355 -32 -458 21 -30 15 -30 17 -24 67 3 29
9 96 12 149 7 105 9 108 75 108 26 0 27 -2 31 -77 5 -92 26 -142 71 -168 26
-17 50 -20 137 -20 132 0 181 22 219 98 22 44 23 52 11 90 -18 60 -64 96 -229
182 -254 132 -303 180 -309 302 -4 64 -1 80 23 128 41 84 126 147 245 181 63
17 260 17 344 -1z m-5490 -508 c-4 -31 -10 -57 -14 -57 -4 0 -110 -11 -236
-25 -292 -32 -284 -32 -284 3 0 15 3 43 6 62 l6 36 211 23 c117 13 230 27 252
31 57 10 67 -3 59 -73z"/>
<path d="M12723 8476 c-86 -38 -173 -179 -198 -323 -9 -50 -14 -154 -15 -289
l0 -210 33 -31 c48 -46 109 -74 182 -83 102 -13 148 3 210 71 82 92 119 227
112 414 -6 168 -47 287 -131 383 -54 61 -139 91 -193 68z"/>
<path d="M16742 8496 c-16 -19 -41 -58 -55 -88 -29 -60 -58 -189 -47 -201 8
-9 352 8 409 19 34 7 34 11 4 108 -23 73 -110 159 -182 180 -78 23 -95 20
-129 -18z"/>
<path d="M7930 7901 c-74 -20 -145 -43 -158 -49 -33 -19 -50 -51 -56 -107 -8
-66 10 -113 54 -143 50 -34 117 -27 216 23 42 21 78 44 79 49 7 21 12 266 6
265 -3 0 -67 -18 -141 -38z"/>
<path d="M14285 7905 c-198 -53 -226 -75 -227 -179 -1 -139 100 -182 253 -109
100 48 96 40 102 191 4 72 3 131 -1 131 -4 -1 -61 -16 -127 -34z"/>
<path d="M9310 6173 c-46 -123 -130 -354 -130 -358 0 -7 251 -6 277 1 l21 6
-18 56 c-11 32 -40 123 -65 205 -25 81 -50 147 -55 147 -5 0 -18 -26 -30 -57z"/>
</g>
</svg>
